<svg id="b270c058-a0d0-4b9f-a162-1e6b83e350d5" data-name="Layer 1" xmlns="http://www.w3.org/2000/svg" width="228.26" height="246" viewBox="0 0 228.26 246"><defs><style>.a765f3ea-9b20-4879-bf05-293d054d8cc8,.b7d1302b-2684-4409-adc9-b36962121303{fill:#fff;stroke:#231f20;stroke-miterlimit:10;}.a765f3ea-9b20-4879-bf05-293d054d8cc8{stroke-width:5px;}.b7d1302b-2684-4409-adc9-b36962121303{stroke-width:3px;}</style></defs><title>horn</title><path class="a765f3ea-9b20-4879-bf05-293d054d8cc8" d="M222.63,32.3c0,4.07-4.28,7.37-9.55,7.37H79.9c-5.28,0-9.55-3.3-9.55-7.37V13.87c0-4.07,4.27-7.37,9.55-7.37H213.08c5.27,0,9.55,3.3,9.55,7.37Z"/><path class="a765f3ea-9b20-4879-bf05-293d054d8cc8" d="M79.46,39.67s2,151.33-45.33,172.66c-47.86,21.57-21.34,27.34-11.34,27.34s164.67-3.34,191.34-200"/><path class="b7d1302b-2684-4409-adc9-b36962121303" d="M75.35,111.65s41.66,80.27,72.47,74.56"/><path class="b7d1302b-2684-4409-adc9-b36962121303" d="M70.35,143.25s31.58,61.48,57.18,60.12"/><path class="b7d1302b-2684-4409-adc9-b36962121303" d="M104.72,157.21s81-16.17,90.09-42.44"/><path class="b7d1302b-2684-4409-adc9-b36962121303" d="M174.93,153.05s-34.3,20.65-55.61,19.58"/><path class="b7d1302b-2684-4409-adc9-b36962121303" d="M82.06,163.2a35.91,35.91,0,0,1-16.55,0"/><path class="b7d1302b-2684-4409-adc9-b36962121303" d="M93.22,178.93s-19,4.43-33,0"/><path class="b7d1302b-2684-4409-adc9-b36962121303" d="M28.6,214.91s-9,16.72,9.54,23.66"/></svg>