<svg id="ad033186-3858-4449-b1fe-b5126c9eb470" data-name="Layer 1" xmlns="http://www.w3.org/2000/svg" width="228.68" height="246" viewBox="0 0 228.68 246"><defs><style>.ac304fd0-fe87-4a7b-9c04-d86a9e314563{fill:#fff;stroke:#231f20;stroke-miterlimit:10;stroke-width:5px;}</style></defs><title>horn</title><path class="ac304fd0-fe87-4a7b-9c04-d86a9e314563" d="M222.13,32.3c0,4.07-4.27,7.37-9.55,7.37H79.4c-5.27,0-9.55-3.3-9.55-7.37V13.87c0-4.07,4.28-7.37,9.55-7.37H212.58c5.28,0,9.55,3.3,9.55,7.37Z"/><path class="ac304fd0-fe87-4a7b-9c04-d86a9e314563" d="M79,39.67S81,191,33.63,212.33C-14.23,233.9,12.3,239.67,22.3,239.67s164.67-3.34,191.33-200"/><path class="ac304fd0-fe87-4a7b-9c04-d86a9e314563" d="M74.86,111.65s41.66,80.27,72.47,74.56"/><path class="ac304fd0-fe87-4a7b-9c04-d86a9e314563" d="M69.85,143.25s31.59,61.48,57.19,60.12"/><path class="ac304fd0-fe87-4a7b-9c04-d86a9e314563" d="M104.23,157.21s81-16.17,90.09-42.44"/><path class="ac304fd0-fe87-4a7b-9c04-d86a9e314563" d="M174.44,153.05s-34.31,20.65-55.61,19.58"/><path class="ac304fd0-fe87-4a7b-9c04-d86a9e314563" d="M81.57,163.2a35.91,35.91,0,0,1-16.55,0"/><path class="ac304fd0-fe87-4a7b-9c04-d86a9e314563" d="M92.72,178.93s-19,4.43-33,0"/><path class="ac304fd0-fe87-4a7b-9c04-d86a9e314563" d="M28.11,214.91s-9,16.72,9.53,23.66"/></svg>